<svg width="52" height="52" viewBox="0 0 52 52" fill="none" xmlns="http://www.w3.org/2000/svg">
<circle cx="26" cy="26" r="26" fill="#4C566A"/>
<path d="M26 33C29.866 33 33 29.866 33 26C33 22.134 29.866 19 26 19C22.134 19 19 22.134 19 26C19 29.866 22.134 33 26 33Z" fill="#ECEFF4"/>
<path d="M26 36.96C25.45 36.96 25 36.55 25 36V35.92C25 35.37 25.45 34.92 26 34.92C26.55 34.92 27 35.37 27 35.92C27 36.47 26.55 36.96 26 36.96ZM33.14 34.14C32.88 34.14 32.63 34.04 32.43 33.85L32.3 33.72C31.91 33.33 31.91 32.7 32.3 32.31C32.69 31.92 33.32 31.92 33.71 32.31L33.84 32.44C34.23 32.83 34.23 33.46 33.84 33.85C33.65 34.04 33.4 34.14 33.14 34.14ZM18.86 34.14C18.6 34.14 18.35 34.04 18.15 33.85C17.76 33.46 17.76 32.83 18.15 32.44L18.28 32.31C18.67 31.92 19.3 31.92 19.69 32.31C20.08 32.7 20.08 33.33 19.69 33.72L19.56 33.85C19.37 34.04 19.11 34.14 18.86 34.14ZM36 27H35.92C35.37 27 34.92 26.55 34.92 26C34.92 25.45 35.37 25 35.92 25C36.47 25 36.96 25.45 36.96 26C36.96 26.55 36.55 27 36 27ZM16.08 27H16C15.45 27 15 26.55 15 26C15 25.45 15.45 25 16 25C16.55 25 17.04 25.45 17.04 26C17.04 26.55 16.63 27 16.08 27ZM33.01 19.99C32.75 19.99 32.5 19.89 32.3 19.7C31.91 19.31 31.91 18.68 32.3 18.29L32.43 18.16C32.82 17.77 33.45 17.77 33.84 18.16C34.23 18.55 34.23 19.18 33.84 19.57L33.71 19.7C33.52 19.89 33.27 19.99 33.01 19.99ZM18.99 19.99C18.73 19.99 18.48 19.89 18.28 19.7L18.15 19.56C17.76 19.17 17.76 18.54 18.15 18.15C18.54 17.76 19.17 17.76 19.56 18.15L19.69 18.28C20.08 18.67 20.08 19.3 19.69 19.69C19.5 19.89 19.24 19.99 18.99 19.99ZM26 17.04C25.45 17.04 25 16.63 25 16.08V16C25 15.45 25.45 15 26 15C26.55 15 27 15.45 27 16C27 16.55 26.55 17.04 26 17.04Z" fill="#ECEFF4"/>
</svg>
