<svg width="52" height="52" viewBox="0 0 52 52" fill="none" xmlns="http://www.w3.org/2000/svg">
<circle cx="26" cy="26" r="26" fill="#D8DEE9"/>
<path d="M35.53 29.93C35.37 29.66 34.92 29.24 33.8 29.44C33.18 29.55 32.55 29.6 31.92 29.57C29.59 29.47 27.48 28.4 26.01 26.75C24.71 25.3 23.91 23.41 23.9 21.37C23.9 20.23 24.12 19.13 24.57 18.09C25.01 17.08 24.7 16.55 24.48 16.33C24.25 16.1 23.71 15.78 22.65 16.22C18.56 17.94 16.03 22.04 16.33 26.43C16.63 30.56 19.53 34.09 23.37 35.42C24.29 35.74 25.26 35.93 26.26 35.97C26.42 35.98 26.58 35.99 26.74 35.99C30.09 35.99 33.23 34.41 35.21 31.72C35.88 30.79 35.7 30.2 35.53 29.93Z" fill="#2E3440"/>
</svg>
